<svg width="116" height="109" viewBox="0 0 116 109" fill="none" xmlns="http://www.w3.org/2000/svg">
<path d="M58.0717 50.956C60.9484 57.5899 57.9292 65.3113 51.328 68.2023C44.7268 71.0933 37.0434 68.0592 34.1666 61.4253C31.2898 54.7915 34.309 47.07 40.9102 44.179C47.5114 41.288 55.1949 44.3222 58.0717 50.956Z" fill="black"/>
<path fill-rule="evenodd" clip-rule="evenodd" d="M88.9538 1.05431L38.107 23.3228C37.1883 23.7126 26.0487 28.5643 16.1348 39.1234C5.78408 50.1477 -3.25492 67.4865 2.07778 91.869C3.0046 96.1068 3.98287 100.234 4.98128 104.309L6.00814 108.5H115.827L110.688 100.124C104.891 90.6754 98.6567 80.1326 92.271 67.5068C80.1257 43.4929 91.8598 19.6856 97.3544 10.7736C99.1792 7.81369 98.2011 4.67243 96.7348 2.92592C95.2609 1.17043 92.2478 -0.388299 88.9538 1.05431ZM7.45077 90.6939C8.36446 94.8716 9.33126 98.9509 10.3233 103H106C104.902 101.21 103.787 99.3792 102.657 97.5C97.7808 89.3935 92.625 80.3931 87.3631 69.9891C75.6893 46.9076 83.8794 24.2954 89.9921 12.6082C90.21 12.1918 90.4252 11.7892 90.6367 11.4009C91.2075 10.3535 91.7518 9.41045 92.2502 8.58113C92.395 8.34011 92.536 8.1087 92.6726 7.88713C93.2624 6.93053 92.1868 5.64276 91.1602 6.09234L40.2885 28.3718L40.2843 28.3736L40.2789 28.3759C40.0846 28.4572 -2.27592 46.2209 7.45077 90.6939Z" fill="black"/>
<path fill-rule="evenodd" clip-rule="evenodd" d="M40.2789 28.3759L40.2843 28.3736L40.2885 28.3718L91.1602 6.09234C92.1868 5.64276 93.2624 6.93053 92.6726 7.88713C87.0022 17.0845 73.8249 43.2212 87.3631 69.9891C93.8449 82.805 100.166 93.491 106 103H10.3233C9.33126 98.9509 8.36446 94.8716 7.45077 90.6939C-2.27592 46.2209 40.0846 28.4572 40.2789 28.3759ZM51.328 68.2023C57.9292 65.3113 60.9484 57.5899 58.0717 50.956C55.1949 44.3222 47.5114 41.288 40.9102 44.179C34.309 47.07 31.2898 54.7915 34.1666 61.4253C37.0434 68.0592 44.7268 71.0933 51.328 68.2023Z" fill="white"/>
</svg>
