<svg width="100" height="100" viewBox="0 0 100 100" fill="none" xmlns="http://www.w3.org/2000/svg">
<path d="M20 50.3404C20 64.8938 30.2467 77.054 43.9192 80L44.1843 76.7861L44.8309 66.443C44.4585 66.4738 44.0585 66.4991 43.6405 66.5145C41.7014 66.5858 38.7997 66.4733 36.6249 65.1702C34.4221 63.8503 33.7235 61.6635 33.313 60.3786C33.288 60.3004 33.2641 60.2256 33.241 60.1544C32.7599 58.6747 32.5271 58.3248 32.0402 58.0941C31.7391 57.9515 31.183 57.7967 30.5627 57.6725C30.2803 57.6159 30.0273 57.5739 29.846 57.5462C29.756 57.5325 29.6851 57.5225 29.6389 57.5162L29.5893 57.5096L29.5812 57.5086C29.5812 57.5086 29.5816 57.5086 29.8719 55.131C30.1622 52.7533 30.1627 52.7534 30.1627 52.7534L30.1674 52.754L30.1756 52.755L30.2007 52.7582L30.284 52.7692C30.3535 52.7787 30.4505 52.7924 30.5691 52.8105C30.805 52.8465 31.1327 52.9009 31.5034 52.9752C32.1895 53.1126 33.2303 53.357 34.091 53.7647C36.5896 54.9483 37.3319 57.2389 37.7649 58.5748L37.7968 58.6733C38.3037 60.2324 38.5309 60.7276 39.0872 61.0609C39.9685 61.589 41.6172 61.7951 43.4645 61.7272C44.0787 61.7046 44.6518 61.6549 45.1336 61.6004L45.5146 55.5041H42.5205C38.1109 55.5041 34.5362 51.9294 34.5362 47.5198V44.3507C34.5362 44.3371 34.5472 44.3261 34.5608 44.3261C34.5733 44.3261 34.5838 44.3167 34.5853 44.3042C34.7735 42.7395 35.4955 41.2723 36.633 39.9794L35.4993 33.2116C35.2534 31.7439 36.972 30.7674 38.107 31.7299L43.0679 35.9368C45.2889 35.1757 47.8194 34.7449 50.5048 34.7449C53.2649 34.7449 55.8615 35.2001 58.1265 36.0012L62.6808 31.6277C63.7542 30.5969 65.5298 31.4654 65.375 32.9456L64.6108 40.2551C65.6132 41.4795 66.2494 42.8497 66.4243 44.3042C66.4258 44.3167 66.4363 44.3261 66.4488 44.3261C66.4624 44.3261 66.4735 44.3371 66.4735 44.3507V47.5198C66.4735 51.9294 62.8988 55.5041 58.4891 55.5041H55.495L56.8203 76.7089C56.8166 76.7098 56.8129 76.7107 56.8092 76.7116L57.0431 79.938C70.5745 76.8867 80.6808 64.7938 80.6808 50.3404C80.6808 33.5839 67.0969 20 50.3404 20C33.5839 20 20 33.5839 20 50.3404Z" fill="black"/>
</svg>
