<svg width="100" height="100" viewBox="0 0 100 100" fill="none" xmlns="http://www.w3.org/2000/svg">
<path d="M17 30.8971C17 25.9833 20.9833 22 25.8971 22H74.4266C79.3404 22 83.3237 25.9833 83.3237 30.8971C83.3237 31.0298 83.3206 31.1617 83.315 31.2928C83.3206 31.4294 83.3237 31.5677 83.3237 31.7059V36.5589C83.3237 41.919 78.9779 46.2648 73.6178 46.2648C71.1159 46.2648 68.8351 45.3181 67.114 43.7634C66.2562 42.9886 64.8029 42.9886 63.9452 43.7634C62.224 45.3181 59.9433 46.2648 57.4413 46.2648C55.2013 46.2648 53.1386 45.5059 51.496 44.2313C50.7273 43.6347 49.5965 43.6347 48.8278 44.2313C47.1851 45.5059 45.1225 46.2648 42.8824 46.2648C40.3805 46.2648 38.0998 45.3181 36.3786 43.7634C35.5208 42.9886 34.0675 42.9886 33.2098 43.7634C31.4886 45.3181 29.2079 46.2648 26.7059 46.2648C21.3459 46.2648 17 41.919 17 36.5589V31.7059C17 31.5677 17.0032 31.4294 17.0087 31.2928L17.0024 31.0969L17 30.8971Z" fill="black"/>
<path d="M51.7795 63.5051V60.8236C51.7795 59.9302 51.0553 59.206 50.1619 59.206H49.353C48.4596 59.206 47.7354 59.9302 47.7354 60.8236V63.5051H51.7795Z" fill="black"/>
<path fill-rule="evenodd" clip-rule="evenodd" d="M21.853 51.007C21.853 49.7605 23.2376 48.9477 24.45 49.236C25.1736 49.409 25.9295 49.4999 26.7059 49.4999C29.2082 49.4999 31.4886 48.5528 33.2097 46.9984C33.7239 46.5339 34.4522 46.3475 35.1378 46.4407C35.5959 46.5023 36.0351 46.688 36.3787 46.9984C38.0998 48.5528 40.3801 49.4999 42.8824 49.4999C45.1225 49.4999 47.1848 48.7408 48.8278 47.466C49.5963 46.8696 50.7274 46.8696 51.496 47.466C53.1389 48.7408 55.2012 49.4999 57.4413 49.4999C59.9436 49.4999 62.224 48.5528 63.9451 46.9984C64.8029 46.2235 66.2562 46.2235 67.114 46.9984C68.8352 48.5528 71.1155 49.4999 73.6178 49.4999C74.3943 49.4999 75.1502 49.409 75.8737 49.236C77.0861 48.9477 78.4708 49.7605 78.4708 51.007V62.4411C78.4708 70.482 71.9528 77 63.9119 77H36.4118C28.371 77 21.853 70.482 21.853 62.4411V51.007ZM58.8062 55.0384C58.5866 55.0898 58.3623 55.1158 58.1372 55.1158H41.2356C41.0199 55.1158 40.8043 55.0906 40.5934 55.0416C39.0539 54.6807 37.5184 55.6585 37.1962 57.2067L35.5848 64.9284C35.1449 67.0358 36.4971 69.1171 38.5934 69.6084C40.73 70.1092 42.8911 68.7601 43.339 66.6116C43.7165 64.802 45.3121 63.5051 47.1612 63.5051H47.7354V66.4178C47.7354 66.7231 47.4878 66.9707 47.1825 66.9707C46.7346 66.9707 46.4725 67.4754 46.7301 67.8417L48.4342 70.2652C49.0784 71.1815 50.4365 71.1815 51.0807 70.2652L52.7848 67.8417C53.0424 67.4754 52.7803 66.9707 52.3325 66.9707C52.0271 66.9707 51.7795 66.7231 51.7795 66.4178V63.5051H52.3735C54.2147 63.5051 55.8031 64.7965 56.1791 66.599C56.6254 68.7371 58.7454 70.0886 60.8725 69.5894L60.9523 69.5712C63.0486 69.0799 64.37 67.0058 63.9301 64.8984L62.3432 57.2927C62.0075 55.6806 60.4096 54.6625 58.8062 55.0384Z" fill="black"/>
</svg>
