<svg width="100" height="80" viewBox="0 0 100 80" fill="none" xmlns="http://www.w3.org/2000/svg">
<path fill-rule="evenodd" clip-rule="evenodd" d="M53.3884 0.00034163L70.8599 0.000332784C71.2124 0.000332784 71.3617 0.528067 71.0718 0.737589C68.2842 2.75208 61.2101 8.86271 61.7672 18.6733C62.1048 24.6198 62.7953 29.5083 63.4059 33.8319L63.4081 33.8474C63.4649 34.2499 63.5211 34.6476 63.5762 35.0407C63.7434 36.2331 64.381 37.3144 65.3702 38.0009C66.0905 38.5009 66.7941 38.9711 67.4703 39.4008C71.5732 42.0075 82.075 45.9289 90.0379 48.9022C93.6404 50.2473 96.7233 51.3985 98.4588 52.1461C98.5697 52.1938 98.6876 52.2382 98.807 52.2831C99.3184 52.4754 99.8562 52.6776 99.9767 53.1994C100.044 53.4933 99.9673 53.822 99.709 54.0532C99.1452 54.5579 98.4177 55.2973 97.5454 56.184C94.5701 59.208 89.9102 63.9444 84.3167 66.9187C74.7393 72.0113 68.003 73.9646 58.406 74.6916C49.6084 75.358 38.323 75.7153 31.1106 75.8893C29.9412 75.9452 29.2529 75.9426 29.2453 75.9425C29.2353 75.9424 29.0414 75.9394 28.7171 75.9439L28.2972 75.9528C27.0457 75.9882 24.7922 76.1279 23.0032 76.6573C20.841 77.2971 17.7319 79.0516 16.2123 79.9513C15.9244 80.1217 15.5827 79.8149 15.7108 79.4961C16.454 77.6454 18.2913 73.0527 21.7775 64.2414C22.3799 62.7187 22.0845 60.987 21.0303 59.7339C18.0848 56.2326 14.9736 52.2844 12.4198 48.4712C7.53307 41.1747 1.66393 27.1955 0.669478 18.6547C-0.0350588 12.6038 -0.0357836 7.19846 0.0236494 4.561C0.0399 3.84019 0.826223 3.45726 1.37932 3.88844C4.00757 5.93738 10.2191 10.5901 16.1573 13.6306C21.9952 16.6198 30.6401 20.2118 34.3582 21.726C34.61 21.8285 34.8876 21.6679 34.9302 21.3994C35.2989 19.0712 35.6647 16.7609 36.113 14.3847C38.8718 -0.23732 53.3222 -0.000820194 53.3884 0.00034163ZM51.591 13.402C53.8579 13.402 55.6956 11.4819 55.6956 9.11344C55.6956 6.74496 53.8579 4.82492 51.591 4.82492C49.3241 4.82492 47.4863 6.74496 47.4863 9.11344C47.4863 11.4819 49.3241 13.402 51.591 13.402Z" fill="#DEDEDE"/>
</svg>
