<svg width="319" height="255" viewBox="0 0 319 255" fill="none" xmlns="http://www.w3.org/2000/svg">
<path fill-rule="evenodd" clip-rule="evenodd" d="M170.309 0.953111L226.043 0.953083C227.168 0.953083 227.644 2.62864 226.719 3.29387C217.827 9.68987 195.26 29.0911 197.037 60.2397C198.114 79.1199 200.317 94.6409 202.265 108.368L202.272 108.417C202.453 109.696 202.632 110.958 202.808 112.206C203.341 115.992 205.375 119.425 208.531 121.605C210.829 123.192 213.073 124.685 215.23 126.049C228.318 134.326 261.819 146.776 287.221 156.216C298.713 160.487 308.547 164.142 314.084 166.516C314.437 166.667 314.814 166.808 315.194 166.951C316.826 167.561 318.541 168.204 318.926 169.86C319.142 170.793 318.896 171.837 318.072 172.571C316.273 174.173 313.952 176.521 311.17 179.336C301.679 188.938 286.813 203.976 268.97 213.419C238.418 229.588 216.93 235.79 186.315 238.098C158.251 240.214 122.25 241.348 99.2427 241.9C95.5125 242.078 93.3167 242.07 93.2924 242.07C93.2605 242.069 92.6421 242.059 91.6076 242.074L90.268 242.102C86.2757 242.214 79.0873 242.658 73.3802 244.339C66.4829 246.37 56.5649 251.941 51.7174 254.797C50.7989 255.339 49.7089 254.364 50.1173 253.352C52.4883 247.476 58.3492 232.894 69.4701 204.919C71.392 200.084 70.4496 194.586 67.0867 190.607C57.6904 179.49 47.7659 166.955 39.6191 154.848C24.0305 131.682 5.30794 87.2978 2.13563 60.1806C-0.111838 40.9692 -0.11415 23.8071 0.0754415 15.4332C0.127281 13.1446 2.63565 11.9288 4.40002 13.2978C12.7841 19.8032 32.5989 34.5755 51.5418 44.2293C70.1646 53.72 97.7419 65.1246 109.603 69.9321C110.406 70.2577 111.291 69.7478 111.427 68.8951C112.603 61.503 113.771 54.1679 115.201 46.6235C124.001 0.198536 170.098 0.949422 170.309 0.953111ZM164.575 43.5033C171.807 43.5033 177.669 37.4071 177.669 29.8872C177.669 22.3673 171.807 16.2712 164.575 16.2712C157.344 16.2712 151.481 22.3673 151.481 29.8872C151.481 37.4071 157.344 43.5033 164.575 43.5033Z" fill="black"/>
</svg>
