<svg width="1619" height="1080" viewBox="0 0 1619 1080" fill="none" xmlns="http://www.w3.org/2000/svg">
<path fill-rule="evenodd" clip-rule="evenodd" d="M-970 0V1080H1534.97V1028.05H1520.99C1525.35 1023.49 1528.97 1018.18 1531.85 1012.12C1536.24 1003.12 1538.43 992.958 1538.43 981.645C1538.43 966.176 1534.62 952.324 1527 940.087C1519.38 928.081 1508.99 918.5 1495.83 911.342C1482.67 904.416 1467.67 900.953 1450.81 900.953C1433.96 900.953 1418.95 904.416 1405.79 911.342C1392.63 918.5 1382.24 928.081 1374.62 940.087C1373.09 942.539 1371.72 945.056 1370.5 947.637V877.311H1474.36C1487.06 877.311 1498.14 874.541 1507.61 868.999C1517.3 863.689 1524.81 856.07 1530.12 846.142C1535.66 836.214 1538.43 824.671 1538.43 811.51C1538.43 798.581 1535.66 787.153 1530.12 777.225C1527.95 773.164 1525.39 769.47 1522.44 766.143H1618.08V713.156H1370.5V661.408C1375.32 671.841 1382.11 681.229 1390.9 689.573L1424.84 655.98C1420.45 652.056 1416.99 647.323 1414.45 641.781C1412.14 636.471 1410.98 630.353 1410.98 623.426C1410.98 616.038 1412.72 609.343 1416.18 603.34C1419.64 597.337 1424.38 592.604 1430.38 589.141C1436.38 585.908 1443.31 584.292 1451.16 584.292C1459.01 584.292 1465.82 585.908 1471.59 589.141C1477.59 592.604 1482.21 597.222 1485.44 602.994C1488.91 608.996 1490.64 615.807 1490.64 623.426C1490.64 630.122 1489.6 636.009 1487.52 641.089C1485.44 646.399 1482.21 651.017 1477.82 654.942L1511.76 688.881C1520.77 680.338 1527.46 670.526 1531.85 659.444C1536.47 648.592 1538.78 636.587 1538.78 623.426C1538.78 605.88 1534.97 590.064 1527.35 575.981C1519.73 561.897 1509.22 550.699 1495.83 542.388C1482.67 534.307 1467.67 530.266 1450.81 530.266C1434.19 530.266 1419.18 534.307 1405.79 542.388C1392.4 550.468 1381.89 561.551 1374.27 575.634C1372.89 578.193 1371.63 580.804 1370.5 583.469V483.537C1372.36 487.284 1374.54 490.739 1377.05 493.9C1386.74 506.368 1399.79 512.602 1416.18 512.602C1426.8 512.602 1435.34 510.639 1441.81 506.714C1448.5 502.789 1453.81 497.71 1457.74 491.476C1461.66 485.242 1464.78 478.662 1467.09 471.736C1469.4 464.809 1471.36 458.229 1472.98 451.996C1474.59 445.762 1476.44 440.682 1478.52 436.758C1480.59 432.833 1483.37 430.87 1486.83 430.87C1490.06 430.87 1492.49 432.371 1494.1 435.372C1495.95 438.374 1496.87 442.876 1496.87 448.879C1496.87 455.112 1495.6 461.462 1493.06 467.926C1490.52 474.622 1486.14 480.625 1479.9 485.935L1510.38 516.065C1520.08 508.446 1527.35 498.518 1532.2 486.281C1537.28 474.276 1539.82 461.115 1539.82 446.801C1539.82 433.179 1537.51 421.289 1532.89 411.13C1528.27 400.971 1521.92 393.121 1513.84 387.58C1505.99 382.039 1496.64 379.268 1485.79 379.268C1475.63 379.268 1467.2 381.231 1460.51 385.156C1454.04 389.081 1448.96 394.16 1445.27 400.394C1441.58 406.628 1438.69 413.208 1436.61 420.134C1434.53 427.061 1432.57 433.641 1430.72 439.874C1429.11 446.108 1427.15 451.188 1424.84 455.112C1422.76 459.268 1419.64 461.346 1415.49 461.346C1412.25 461.346 1409.71 459.615 1407.87 456.151C1406.02 452.919 1405.1 448.186 1405.1 441.952C1405.1 432.948 1406.71 424.636 1409.95 417.017C1413.41 409.398 1418.14 402.818 1424.14 397.277L1393.67 367.147C1387.44 372.919 1381.89 379.846 1377.05 387.927C1374.56 392.394 1372.38 397.028 1370.5 401.829V345.418H1534.97V292.432H1370.5V250.389H1611.16V211.255L1476.6 125.177L1611.16 38.7878V0H-970ZM1370.5 54.0258V196.017H1501.85L1419.3 143.03V107.013L1502.31 54.0258H1370.5ZM1370.5 766.143V824.324H1462.59C1471.36 824.324 1478.4 821.554 1483.71 816.013C1489.25 810.702 1492.02 803.891 1492.02 795.58C1492.02 789.808 1490.75 784.728 1488.21 780.342C1485.91 775.955 1482.44 772.492 1477.82 769.952C1473.44 767.412 1468.36 766.143 1462.59 766.143H1370.5ZM1370.5 1013.95V1028.05H1380.3C1376.46 1024 1373.2 1019.3 1370.5 1013.95ZM1410.98 992.381C1410.98 1003.69 1414.68 1012.81 1422.07 1019.74C1429.69 1026.67 1439.27 1030.13 1450.81 1030.13C1458.66 1030.13 1465.59 1028.51 1471.59 1025.28C1477.59 1022.28 1482.21 1017.89 1485.44 1012.12C1488.91 1006.58 1490.64 1000.12 1490.64 992.727C1490.64 985.339 1488.91 978.759 1485.44 972.987C1482.21 967.446 1477.59 962.944 1471.59 959.481C1465.59 956.248 1458.66 954.632 1450.81 954.632C1443.19 954.632 1436.38 956.248 1430.38 959.481C1424.38 962.713 1419.64 967.215 1416.18 972.987C1412.72 978.759 1410.98 985.224 1410.98 992.381Z" fill="black"/>
<path d="M1558.17 319.098C1558.17 310.787 1560.94 303.86 1566.48 298.319C1572.25 293.009 1579.18 290.354 1587.26 290.354C1595.57 290.354 1602.5 293.009 1608.04 298.319C1613.58 303.86 1616.35 310.787 1616.35 319.098C1616.35 327.41 1613.58 334.221 1608.04 339.531C1602.5 344.841 1595.57 347.496 1587.26 347.496C1579.18 347.496 1572.25 344.841 1566.48 339.531C1560.94 334.221 1558.17 327.41 1558.17 319.098Z" fill="black"/>
</svg>
