<svg width="2589" height="1080" viewBox="0 0 2589 1080" fill="none" xmlns="http://www.w3.org/2000/svg">
<path fill-rule="evenodd" clip-rule="evenodd" d="M0 0V1080H2504.97V1028.05H2490.99C2495.35 1023.49 2498.97 1018.18 2501.85 1012.12C2506.24 1003.12 2508.43 992.958 2508.43 981.645C2508.43 966.176 2504.62 952.324 2497 940.087C2489.38 928.081 2478.99 918.5 2465.83 911.342C2452.67 904.416 2437.67 900.953 2420.81 900.953C2403.96 900.953 2388.95 904.416 2375.79 911.342C2362.63 918.5 2352.24 928.081 2344.62 940.087C2343.09 942.539 2341.72 945.056 2340.5 947.637V877.311H2444.36C2457.06 877.311 2468.14 874.541 2477.61 868.999C2487.3 863.689 2494.81 856.07 2500.12 846.142C2505.66 836.214 2508.43 824.671 2508.43 811.51C2508.43 798.581 2505.66 787.153 2500.12 777.225C2497.95 773.164 2495.39 769.47 2492.44 766.143H2588.08V713.156H2340.5V661.408C2345.32 671.841 2352.11 681.229 2360.9 689.573L2394.84 655.98C2390.45 652.056 2386.99 647.323 2384.45 641.781C2382.14 636.471 2380.98 630.353 2380.98 623.426C2380.98 616.038 2382.72 609.343 2386.18 603.34C2389.64 597.337 2394.38 592.604 2400.38 589.141C2406.38 585.908 2413.31 584.292 2421.16 584.292C2429.01 584.292 2435.82 585.908 2441.59 589.141C2447.59 592.604 2452.21 597.222 2455.44 602.994C2458.91 608.996 2460.64 615.807 2460.64 623.426C2460.64 630.122 2459.6 636.009 2457.52 641.089C2455.44 646.399 2452.21 651.017 2447.82 654.942L2481.76 688.881C2490.77 680.338 2497.46 670.526 2501.85 659.444C2506.47 648.592 2508.78 636.587 2508.78 623.426C2508.78 605.88 2504.97 590.064 2497.35 575.981C2489.73 561.897 2479.22 550.699 2465.83 542.388C2452.67 534.307 2437.67 530.266 2420.81 530.266C2404.19 530.266 2389.18 534.307 2375.79 542.388C2362.4 550.468 2351.89 561.551 2344.27 575.634C2342.89 578.193 2341.63 580.804 2340.5 583.469V483.537C2342.36 487.284 2344.54 490.739 2347.05 493.9C2356.74 506.368 2369.79 512.602 2386.18 512.602C2396.8 512.602 2405.34 510.639 2411.81 506.714C2418.5 502.789 2423.81 497.71 2427.74 491.476C2431.66 485.242 2434.78 478.662 2437.09 471.736C2439.4 464.809 2441.36 458.229 2442.98 451.996C2444.59 445.762 2446.44 440.682 2448.52 436.758C2450.59 432.833 2453.37 430.87 2456.83 430.87C2460.06 430.87 2462.49 432.371 2464.1 435.372C2465.95 438.374 2466.87 442.876 2466.87 448.879C2466.87 455.112 2465.6 461.462 2463.06 467.926C2460.52 474.622 2456.14 480.625 2449.9 485.935L2480.38 516.065C2490.08 508.446 2497.35 498.518 2502.2 486.281C2507.28 474.276 2509.82 461.115 2509.82 446.801C2509.82 433.179 2507.51 421.289 2502.89 411.13C2498.27 400.971 2491.92 393.121 2483.84 387.58C2475.99 382.039 2466.64 379.268 2455.79 379.268C2445.63 379.268 2437.2 381.231 2430.51 385.156C2424.04 389.081 2418.96 394.16 2415.27 400.394C2411.58 406.628 2408.69 413.208 2406.61 420.134C2404.53 427.061 2402.57 433.641 2400.72 439.874C2399.11 446.108 2397.15 451.188 2394.84 455.112C2392.76 459.268 2389.64 461.346 2385.49 461.346C2382.25 461.346 2379.71 459.615 2377.87 456.151C2376.02 452.919 2375.1 448.186 2375.1 441.952C2375.1 432.948 2376.71 424.636 2379.95 417.017C2383.41 409.398 2388.14 402.818 2394.14 397.277L2363.67 367.147C2357.43 372.919 2351.89 379.846 2347.05 387.927C2344.56 392.394 2342.38 397.028 2340.5 401.829V345.418H2504.97V292.432H2340.5V250.389H2581.16V211.255L2446.6 125.177L2581.16 38.7878V0H0ZM2340.5 54.0258V196.017H2471.85L2389.3 143.03V107.013L2472.31 54.0258H2340.5ZM2340.5 766.143V824.324H2432.59C2441.36 824.324 2448.4 821.554 2453.71 816.013C2459.25 810.702 2462.02 803.891 2462.02 795.58C2462.02 789.808 2460.75 784.728 2458.21 780.342C2455.91 775.955 2452.44 772.492 2447.82 769.952C2443.44 767.412 2438.36 766.143 2432.59 766.143H2340.5ZM2340.5 1013.95V1028.05H2350.3C2346.46 1024 2343.2 1019.3 2340.5 1013.95ZM2380.98 992.381C2380.98 1003.69 2384.68 1012.81 2392.07 1019.74C2399.69 1026.67 2409.27 1030.13 2420.81 1030.13C2428.66 1030.13 2435.59 1028.51 2441.59 1025.28C2447.59 1022.28 2452.21 1017.89 2455.44 1012.12C2458.91 1006.58 2460.64 1000.12 2460.64 992.727C2460.64 985.339 2458.91 978.759 2455.44 972.987C2452.21 967.446 2447.59 962.944 2441.59 959.481C2435.59 956.248 2428.66 954.632 2420.81 954.632C2413.19 954.632 2406.38 956.248 2400.38 959.481C2394.38 962.713 2389.64 967.215 2386.18 972.987C2382.72 978.759 2380.98 985.224 2380.98 992.381Z" fill="black"/>
<path d="M2528.17 319.098C2528.17 310.787 2530.94 303.86 2536.48 298.319C2542.25 293.009 2549.18 290.354 2557.26 290.354C2565.57 290.354 2572.5 293.009 2578.04 298.319C2583.58 303.86 2586.35 310.787 2586.35 319.098C2586.35 327.41 2583.58 334.221 2578.04 339.531C2572.5 344.841 2565.57 347.496 2557.26 347.496C2549.18 347.496 2542.25 344.841 2536.48 339.531C2530.94 334.221 2528.17 327.41 2528.17 319.098Z" fill="black"/>
</svg>
