<svg width="100" height="100" viewBox="0 0 100 100" fill="none" xmlns="http://www.w3.org/2000/svg">
<path d="M12.5409 27H33.7861C41.329 27 47.4437 32.598 47.4437 39.5035V70.0674C47.4437 71.8577 45.8584 73.309 43.9029 73.309H37.327C35.3714 73.309 33.7861 71.8577 33.7861 70.0674V44.1343C33.7861 42.3441 32.2008 40.8927 30.2452 40.8927H26.1985C24.2429 40.8927 22.6576 42.3441 22.6576 44.1343V70.0674C22.6576 71.8577 21.0723 73.309 19.1168 73.309H12.5409C10.5853 73.309 9 71.8577 9 70.0674V30.2416C9 28.4513 10.5853 27 12.5409 27Z" fill="black"/>
<path d="M51.9963 30.2416C51.9963 28.4513 53.5816 27 55.5372 27H86.8992C88.8548 27 90.4401 28.4513 90.4401 30.2416V43.1074C90.4401 44.2195 89.5719 45.1209 88.501 45.1209H78.8057C77.7348 45.1209 76.8667 44.2195 76.8667 43.1074V38.5772H68.1831C66.2275 38.5772 64.6422 40.0285 64.6422 41.8188V59.4163C64.6422 61.2066 66.2275 62.658 68.1831 62.658H73.2415C75.1971 62.658 76.7824 61.2066 76.7824 59.4163V59.2149H71.0496C69.9786 59.2149 69.1105 58.3135 69.1105 57.2015V51.1612C69.1105 50.0492 69.9786 49.1478 71.0496 49.1478H88.501C89.5719 49.1478 90.4401 50.0492 90.4401 51.1612V70.0674C90.4401 71.8577 88.8548 73.309 86.8992 73.309H55.5372C53.5816 73.309 51.9963 71.8577 51.9963 70.0674V30.2416Z" fill="black"/>
</svg>
