<svg width="100" height="100" viewBox="0 0 100 100" fill="none" xmlns="http://www.w3.org/2000/svg">
<path fill-rule="evenodd" clip-rule="evenodd" d="M15.0718 29.7278C12 33.418 12 38.9453 12 50C12 61.0546 12 66.582 15.0718 70.2722C15.5631 70.8624 16.1047 71.4083 16.6902 71.9035C20.3511 75 25.8344 75 36.8011 75H63.0611C74.0278 75 79.5111 75 83.172 71.9035C83.7575 71.4083 84.299 70.8624 84.7903 70.2722C87.8621 66.582 87.8622 61.0546 87.8622 50C87.8622 38.9453 87.8621 33.418 84.7903 29.7278C84.299 29.1376 83.7575 28.5917 83.172 28.0965C79.5111 25 74.0278 25 63.0611 25H36.8011C25.8344 25 20.3511 25 16.6902 28.0965C16.1047 28.5917 15.5631 29.1376 15.0718 29.7278ZM42.6366 38.2353L61.6022 48.5294L42.6366 60.2941V38.2353Z" fill="black"/>
</svg>
