<svg width="250" height="200" viewBox="0 0 250 200" fill="none" xmlns="http://www.w3.org/2000/svg">
<path fill-rule="evenodd" clip-rule="evenodd" d="M133.471 0.000854072L177.15 0.000831959C178.031 0.000831959 178.404 1.32017 177.679 1.84397C170.71 6.88019 153.025 22.1568 154.418 46.6832C155.262 61.5495 156.988 73.7707 158.515 84.5798L158.52 84.6185C158.891 87.2471 159.251 89.7923 159.583 92.2717C162.725 94.5533 165.8 96.6745 168.676 98.5019C178.933 105.019 205.188 114.822 225.095 122.255C234.101 125.618 241.808 128.496 246.147 130.365C246.424 130.485 246.719 130.595 247.018 130.708C248.296 131.188 249.641 131.694 249.942 132.998C250.111 133.733 249.918 134.555 249.272 135.133C247.863 136.395 246.044 138.243 243.863 140.46C236.425 148.02 224.775 159.861 210.792 167.297C186.848 180.028 170.008 184.911 146.015 186.729C124.021 188.395 95.8075 189.288 77.7764 189.723C74.853 189.863 73.1322 189.856 73.1132 189.856C73.0882 189.856 72.6035 189.848 71.7928 189.86L70.743 189.882C67.6142 189.97 61.9806 190.32 57.508 191.643C52.1026 193.243 44.3298 197.629 40.5309 199.878C39.811 200.304 38.9568 199.537 39.2769 198.74C41.3021 193.697 46.5765 180.511 56.8961 154.402C48.3533 144.512 38.701 132.602 31.0494 121.178C18.8327 102.937 4.15983 67.9888 1.67369 46.6367C-0.0876471 31.5095 -0.0894591 17.9961 0.0591234 11.4025C0.0997499 9.60048 2.06556 8.64315 3.44829 9.7211C10.0189 14.8434 25.5477 26.4751 40.3933 34.0766C55.6708 41.8993 78.6381 51.3732 87.1174 54.8115L87.3254 53.4985C88.2472 47.6779 89.1619 41.9022 90.2826 35.9618C97.1796 -0.593302 133.305 -0.00205049 133.471 0.000854072ZM128.977 33.5049C134.645 33.5049 139.239 28.7048 139.239 22.7836C139.239 16.8624 134.645 12.0623 128.977 12.0623C123.31 12.0623 118.716 16.8624 118.716 22.7836C118.716 28.7048 123.31 33.5049 128.977 33.5049Z" fill="#DEDEDE"/>
</svg>
