<svg width="52" height="50" viewBox="0 0 52 50" fill="none" xmlns="http://www.w3.org/2000/svg">
<path d="M0.843262 25.2837C0.843262 37.4115 9.38216 47.545 20.7759 50L20.9968 47.3217L21.5357 38.7025C21.2254 38.7282 20.892 38.7493 20.5436 38.7621C18.9277 38.8215 16.5097 38.7278 14.6973 37.6418C12.8617 36.542 12.2795 34.7195 11.9374 33.6489C11.9166 33.5837 11.8967 33.5213 11.8774 33.462C11.4765 32.2289 11.2825 31.9373 10.8768 31.7451C10.6258 31.6262 10.1625 31.4973 9.64553 31.3937C9.41014 31.3466 9.19936 31.3116 9.04826 31.2885C8.97322 31.2771 8.91418 31.2687 8.87572 31.2635L8.83437 31.258L8.82758 31.2571C8.82758 31.2571 8.82794 31.2572 9.06985 29.2758C9.31175 27.2944 9.31215 27.2945 9.31215 27.2945L9.31608 27.295L9.3229 27.2958L9.34383 27.2985L9.41326 27.3077C9.47118 27.3155 9.552 27.327 9.65082 27.3421C9.84745 27.3721 10.1205 27.4174 10.4295 27.4793C11.0012 27.5938 11.8685 27.7975 12.5858 28.1373C14.6679 29.1236 15.2865 31.0324 15.6473 32.1456L15.674 32.2277C16.0964 33.527 16.2857 33.9397 16.7492 34.2174C17.4837 34.6575 18.8576 34.8292 20.397 34.7726C20.9088 34.7538 21.3865 34.7124 21.7879 34.667L22.1054 29.5867H19.6103C15.9357 29.5867 12.9567 26.6078 12.9567 22.9332V20.2922C12.9567 20.2809 12.9659 20.2717 12.9773 20.2717C12.9877 20.2717 12.9964 20.2639 12.9977 20.2535C13.1545 18.9496 13.7562 17.7269 14.7041 16.6495L13.7593 11.0097C13.5544 9.78658 14.9866 8.97279 15.9324 9.7749L20.0665 13.2807C21.9173 12.6464 24.0261 12.2874 26.2639 12.2874C28.564 12.2874 30.7278 12.6667 32.6153 13.3344L36.4106 9.68976C37.3051 8.83077 38.7847 9.55452 38.6558 10.788L38.0189 16.8793C38.8543 17.8996 39.3844 19.0415 39.5302 20.2535C39.5314 20.2639 39.5402 20.2717 39.5506 20.2717C39.5619 20.2717 39.5711 20.2809 39.5711 20.2922V22.9332C39.5711 26.6078 36.5922 29.5867 32.9175 29.5867H30.4224L31.5268 47.2574C31.5237 47.2581 31.5207 47.2589 31.5176 47.2596L31.7125 49.9483C42.9887 47.4056 51.4106 37.3281 51.4106 25.2837C51.4106 11.3199 40.0907 0 26.1269 0C12.1631 0 0.843262 11.3199 0.843262 25.2837Z" fill="black"/>
</svg>
