<svg width="1206" height="1034" viewBox="0 0 1206 1034" fill="none" xmlns="http://www.w3.org/2000/svg">
<path fill-rule="evenodd" clip-rule="evenodd" d="M1199.98 -1H987.61V0H0V1034H988V945H1133.8V899.497H1121.66C1125.46 895.498 1128.6 890.847 1131.1 885.543C1134.91 877.656 1136.81 868.758 1136.81 858.849C1136.81 845.299 1133.5 833.165 1126.89 822.446C1120.27 811.93 1111.24 803.538 1099.81 797.268C1088.38 791.201 1075.35 788.168 1060.71 788.168C1046.07 788.168 1033.03 791.201 1021.6 797.268C1010.17 803.538 1001.15 811.93 994.528 822.446C991.783 826.894 989.607 831.584 988 836.519V767.459H1081.16C1092.19 767.459 1101.82 765.033 1110.04 760.179C1118.46 755.528 1124.98 748.854 1129.59 740.158C1134.41 731.462 1136.81 721.35 1136.81 709.823C1136.81 698.498 1134.41 688.487 1129.59 679.791C1127.71 676.234 1125.48 672.998 1122.93 670.084H1206V623.672H988V570.485C988.679 572.684 989.451 574.832 990.317 576.927C994.528 586.634 1000.64 595.33 1008.67 603.015L1038.15 573.59C1034.34 570.152 1031.33 566.007 1029.12 561.153C1027.12 556.502 1026.11 551.142 1026.11 545.075C1026.11 538.604 1027.62 532.739 1030.63 527.481C1033.63 522.223 1037.75 518.077 1042.96 515.044C1048.17 512.212 1054.19 510.797 1061.01 510.797C1067.83 510.797 1073.74 512.212 1078.76 515.044C1083.97 518.077 1087.98 522.122 1090.79 527.178C1093.8 532.436 1095.3 538.402 1095.3 545.075C1095.3 550.94 1094.4 556.097 1092.59 560.546C1090.79 565.198 1087.98 569.242 1084.17 572.68L1113.65 602.409C1121.47 594.926 1127.29 586.331 1131.1 576.624C1135.11 567.119 1137.11 556.603 1137.11 545.075C1137.11 529.706 1133.8 515.853 1127.19 503.516C1120.57 491.18 1111.44 481.372 1099.81 474.091C1088.38 467.013 1075.35 463.474 1060.71 463.474C1046.27 463.474 1033.23 467.013 1021.6 474.091C1009.97 481.17 1000.85 490.877 994.228 503.213C991.65 508.019 989.574 513.039 988 518.274V415.353C990.073 421.51 992.951 426.933 996.634 431.62C1005.06 442.541 1016.39 448.001 1030.63 448.001C1039.85 448.001 1047.27 446.282 1052.89 442.844C1058.7 439.406 1063.31 434.957 1066.72 429.497C1070.13 424.036 1072.84 418.273 1074.85 412.206C1076.85 406.139 1078.56 400.375 1079.96 394.915C1081.36 389.454 1082.97 385.005 1084.77 381.567C1086.58 378.129 1088.98 376.41 1091.99 376.41C1094.8 376.41 1096.91 377.725 1098.31 380.354C1099.91 382.983 1100.72 386.926 1100.72 392.185C1100.72 397.645 1099.61 403.206 1097.41 408.869C1095.2 414.734 1091.39 419.992 1085.98 424.643L1112.45 451.034C1120.87 444.361 1127.19 435.665 1131.4 424.946C1135.81 414.43 1138.02 402.903 1138.02 390.364C1138.02 378.433 1136.01 368.018 1132 359.119C1127.99 350.221 1122.47 343.345 1115.46 338.492C1108.64 333.638 1100.51 331.211 1091.09 331.211C1082.27 331.211 1074.95 332.93 1069.13 336.368C1063.51 339.806 1059.1 344.255 1055.89 349.715C1052.69 355.176 1050.18 360.939 1048.37 367.006C1046.57 373.073 1044.86 378.837 1043.26 384.297C1041.86 389.758 1040.15 394.207 1038.15 397.645C1036.34 401.285 1033.63 403.105 1030.02 403.105C1027.22 403.105 1025.01 401.588 1023.41 398.555C1021.8 395.724 1021 391.578 1021 386.117C1021 378.23 1022.4 370.95 1025.21 364.276C1028.22 357.603 1032.33 351.839 1037.54 346.985L1011.07 320.594C1005.66 325.65 1000.85 331.717 996.634 338.795C993.026 345.345 990.148 352.304 988 359.673V301.561H1133.8V255.148H988V218.322H1199.98V184.044L1083.11 108.646L1199.98 32.9752V-1ZM988 170.696H1105.04L1033.33 124.284V92.7352L1105.44 46.3226H988V170.696ZM988 670.084V721.047H1070.93C1078.56 721.047 1084.67 718.62 1089.28 713.767C1094.1 709.115 1096.5 703.149 1096.5 695.869C1096.5 690.813 1095.4 686.364 1093.2 682.521C1091.19 678.679 1088.18 675.646 1084.17 673.421C1080.36 671.196 1075.95 670.084 1070.93 670.084H988ZM988 880.149V899.497H999.458C995.825 895.622 992.778 891.072 990.317 885.847C989.445 883.995 988.673 882.096 988 880.149ZM1035.74 892.217C1029.32 886.15 1026.11 878.162 1026.11 868.252C1026.11 861.983 1027.62 856.321 1030.63 851.265C1033.63 846.209 1037.75 842.265 1042.96 839.434C1048.17 836.603 1054.09 835.187 1060.71 835.187C1067.53 835.187 1073.54 836.603 1078.76 839.434C1083.97 842.468 1087.98 846.411 1090.79 851.265C1093.8 856.321 1095.3 862.084 1095.3 868.556C1095.3 875.027 1093.8 880.69 1090.79 885.543C1087.98 890.599 1083.97 894.442 1078.76 897.071C1073.54 899.902 1067.53 901.318 1060.71 901.318C1050.68 901.318 1042.36 898.284 1035.74 892.217Z" fill="black"/>
<path d="M1161.18 260.305C1156.37 265.159 1153.96 271.226 1153.96 278.506C1153.96 285.787 1156.37 291.753 1161.18 296.404C1166.19 301.055 1172.21 303.381 1179.23 303.381C1186.45 303.381 1192.46 301.055 1197.28 296.404C1202.09 291.753 1204.5 285.787 1204.5 278.506C1204.5 271.226 1202.09 265.159 1197.28 260.305C1192.46 255.654 1186.45 253.328 1179.23 253.328C1172.21 253.328 1166.19 255.654 1161.18 260.305Z" fill="black"/>
</svg>
