<svg width="55" height="46" viewBox="0 0 55 46" fill="none" xmlns="http://www.w3.org/2000/svg">
<path d="M0 7.98041C0 3.93822 3.27677 0.661438 7.31896 0.661438H47.2405C51.2827 0.661438 54.5595 3.93822 54.5595 7.98041C54.5595 8.08957 54.5569 8.19805 54.5524 8.30591C54.5569 8.41832 54.5595 8.53204 54.5595 8.64575V12.6379C54.5595 17.0472 50.9845 20.6223 46.5752 20.6223C44.517 20.6223 42.6408 19.8435 41.225 18.5645C40.5194 17.9271 39.3238 17.9271 38.6182 18.5645C37.2023 19.8435 35.3262 20.6223 33.268 20.6223C31.4253 20.6223 29.7285 19.998 28.3772 18.9494C27.7449 18.4587 26.8146 18.4587 26.1823 18.9494C24.831 19.998 23.1342 20.6223 21.2915 20.6223C19.2333 20.6223 17.3572 19.8435 15.9413 18.5645C15.2357 17.9271 14.0401 17.9271 13.3345 18.5645C11.9187 19.8435 10.0425 20.6223 7.98432 20.6223C3.57501 20.6223 0 17.0472 0 12.6379V8.64575C0 8.53204 0.00260038 8.41832 0.00714874 8.30591L0.00194931 8.14478L0 7.98041Z" fill="black"/>
<path d="M28.6105 34.8045V32.5987C28.6105 31.8638 28.0147 31.268 27.2798 31.268H26.6144C25.8795 31.268 25.2837 31.8638 25.2837 32.5987V34.8045H28.6105Z" fill="black"/>
<path fill-rule="evenodd" clip-rule="evenodd" d="M3.99216 24.5233C3.99216 23.4979 5.1312 22.8293 6.12859 23.0665C6.72377 23.2088 7.3456 23.2835 7.98432 23.2835C10.0428 23.2835 11.9186 22.5044 13.3345 21.2257C13.7575 20.8436 14.3566 20.6903 14.9206 20.767C15.2974 20.8176 15.6587 20.9704 15.9413 21.2257C17.3572 22.5044 19.2331 23.2835 21.2915 23.2835C23.1342 23.2835 24.8308 22.6591 26.1823 21.6104C26.8145 21.1198 27.745 21.1198 28.3772 21.6104C29.7287 22.6591 31.4253 23.2835 33.268 23.2835C35.3264 23.2835 37.2023 22.5044 38.6182 21.2257C39.3238 20.5883 40.5194 20.5883 41.225 21.2257C42.6409 22.5044 44.5167 23.2835 46.5752 23.2835C47.2139 23.2835 47.8357 23.2088 48.4309 23.0665C49.4283 22.8293 50.5673 23.4979 50.5673 24.5233V33.9293C50.5673 40.5439 45.2055 45.9058 38.5909 45.9058H15.9686C9.35402 45.9058 3.99216 40.5439 3.99216 33.9293V24.5233ZM34.3908 27.8397C34.2101 27.8819 34.0256 27.9033 33.8404 27.9033H19.9368C19.7594 27.9033 19.582 27.8826 19.4085 27.8423C18.1421 27.5453 16.879 28.3498 16.6138 29.6233L15.2883 35.9754C14.9264 37.709 16.0388 39.4211 17.7633 39.8253C19.5209 40.2372 21.2987 39.1274 21.6671 37.36C21.9777 35.8714 23.2902 34.8045 24.8113 34.8045H25.2837V37.2006C25.2837 37.4518 25.08 37.6555 24.8288 37.6555C24.4604 37.6555 24.2448 38.0706 24.4567 38.3719L25.8585 40.3655C26.3885 41.1193 27.5056 41.1193 28.0356 40.3655L29.4374 38.3719C29.6493 38.0706 29.4338 37.6555 29.0653 37.6555C28.8141 37.6555 28.6105 37.4518 28.6105 37.2006V34.8045H29.0991C30.6137 34.8045 31.9204 35.8668 32.2297 37.3496C32.5968 39.1085 34.3408 40.2203 36.0906 39.8096L36.1562 39.7947C37.8807 39.3905 38.9677 37.6843 38.6058 35.9507L37.3004 29.6941C37.0243 28.3679 35.7098 27.5304 34.3908 27.8397Z" fill="black"/>
</svg>
