<svg width="69" height="40" viewBox="0 0 69 40" fill="none" xmlns="http://www.w3.org/2000/svg">
<path d="M3.64505 0.653625H21.3494C27.6351 0.653625 32.7308 5.31863 32.7308 11.0732V36.5432C32.7308 38.035 31.4097 39.2444 29.7801 39.2444H24.3001C22.6705 39.2444 21.3494 38.035 21.3494 36.5432V14.9323C21.3494 13.4404 20.0283 12.2309 18.3987 12.2309H15.0264C13.3968 12.2309 12.0757 13.4404 12.0757 14.9323V36.5432C12.0757 38.035 10.7546 39.2444 9.12497 39.2444H3.64505C2.01542 39.2444 0.694336 38.035 0.694336 36.5432V3.35492C0.694336 1.86303 2.01542 0.653625 3.64505 0.653625Z" fill="black"/>
<path d="M36.5246 3.35492C36.5246 1.86303 37.8457 0.653625 39.4753 0.653625H65.6103C67.24 0.653625 68.561 1.86303 68.561 3.35492V14.0765C68.561 15.0032 67.8376 15.7544 66.9452 15.7544H58.8658C57.9733 15.7544 57.2499 15.0032 57.2499 14.0765V10.3013H50.0136C48.384 10.3013 47.0629 11.5107 47.0629 13.0026V27.6672C47.0629 29.1592 48.384 30.3686 50.0136 30.3686H54.2289C55.8586 30.3686 57.1797 29.1592 57.1797 27.6672V27.4994H52.4023C51.5099 27.4994 50.7864 26.7482 50.7864 25.8215V20.788C50.7864 19.8613 51.5099 19.1101 52.4023 19.1101H66.9452C67.8376 19.1101 68.561 19.8613 68.561 20.788V36.5432C68.561 38.035 67.24 39.2444 65.6103 39.2444H39.4753C37.8457 39.2444 36.5246 38.035 36.5246 36.5432V3.35492Z" fill="black"/>
</svg>
