<svg width="60" height="40" viewBox="0 0 60 40" fill="none" xmlns="http://www.w3.org/2000/svg">
<path fill-rule="evenodd" clip-rule="evenodd" d="M2.87674 4.30261C0.505847 7.1508 0.505859 11.4169 0.505859 19.949C0.505859 28.4812 0.505847 32.7473 2.87674 35.5955C3.25594 36.051 3.67389 36.4723 4.12582 36.8546C6.95135 39.2445 11.1835 39.2444 19.6477 39.2444H39.9156C48.3799 39.2444 52.612 39.2445 55.4376 36.8546C55.8895 36.4723 56.3074 36.051 56.6866 35.5955C59.0575 32.7473 59.0575 28.4812 59.0575 19.949C59.0575 11.4169 59.0575 7.1508 56.6866 4.30261C56.3074 3.84706 55.8895 3.42577 55.4376 3.04352C52.612 0.653609 48.3799 0.653625 39.9156 0.653625H19.6477C11.1835 0.653625 6.95135 0.653609 4.12582 3.04352C3.67389 3.42577 3.25594 3.84706 2.87674 4.30261ZM24.1517 10.8688L38.7896 18.814L24.1517 27.8942V10.8688Z" fill="black"/>
</svg>
